<svg width="40" height="40" viewBox="0 0 40 40" fill="none" xmlns="http://www.w3.org/2000/svg">
<path opacity="0.2" d="M19.9999 3.33317C29.1916 3.33317 36.6666 10.8098 36.6666 19.9998C36.6666 29.1898 29.1916 36.6665 19.9999 36.6665C10.8099 36.6665 3.33325 29.1898 3.33325 19.9998C3.33325 10.8098 10.8099 3.33317 19.9999 3.33317Z" fill="#2CCCD3"/>
<path d="M17.5959 12.9654C17.9142 12.9654 18.2342 13.087 18.4776 13.3304L24.2892 19.1137C24.5242 19.3487 24.6559 19.667 24.6559 20.0004C24.6559 20.332 24.5242 20.6504 24.2892 20.8854L18.4776 26.672C17.9892 27.1587 17.1992 27.1587 16.7109 26.6687C16.2242 26.1787 16.2259 25.387 16.7142 24.9004L21.6359 20.0004L16.7142 15.1004C16.2259 14.6137 16.2242 13.8237 16.7109 13.3337C16.9542 13.087 17.2759 12.9654 17.5959 12.9654Z" fill="#0C2340"/>
</svg>
