<svg width="14" height="14" viewBox="0 0 14 14" fill="none" xmlns="http://www.w3.org/2000/svg">
<path d="M11.6666 7V8.51667C11.6666 10.1444 11.6666 10.9582 11.2209 11.5086C11.1329 11.6172 11.0338 11.7163 10.9252 11.8043C10.3748 12.25 9.56096 12.25 7.93325 12.25H3.79158C2.98617 12.25 2.33325 11.5971 2.33325 10.7917V10.7917C2.33325 9.98625 2.98617 9.33333 3.79159 9.33333H7.93325C9.56096 9.33333 10.3748 9.33333 10.9252 8.88763C11.0338 8.79968 11.1329 8.70058 11.2209 8.59197C11.6666 8.04157 11.6666 7.21807 11.6666 5.57106V5.57106C11.6666 3.8676 11.6666 3.01588 11.1916 2.45609C11.121 2.37286 11.0437 2.29556 10.9605 2.22495C10.4007 1.75 9.55878 1.75 7.87492 1.75H6.33325C4.44763 1.75 3.50482 1.75 2.91904 2.33579C2.33325 2.92157 2.33325 3.86438 2.33325 5.75V10.7917" stroke="#0C2340"/>
<path d="M5.25 5.83341L5.70956 6.29297C6.10008 6.6835 6.73325 6.6835 7.12377 6.29297L8.75 4.66675" stroke="#0C2340" stroke-linecap="round"/>
</svg>
