<svg width="14" height="14" viewBox="0 0 14 14" fill="none" xmlns="http://www.w3.org/2000/svg">
<mask id="mask0_1495_10548" style="mask-type:alpha" maskUnits="userSpaceOnUse" x="1" y="1" width="13" height="13">
<path fill-rule="evenodd" clip-rule="evenodd" d="M1.16699 1.16699H13.1251V13.125H1.16699V1.16699Z" fill="white"/>
</mask>
<g mask="url(#mask0_1495_10548)">
<path fill-rule="evenodd" clip-rule="evenodd" d="M2.54312 2.95218C2.54429 2.95218 2.51512 2.98251 2.47837 3.01868C2.33721 3.15576 2.04496 3.44101 2.04204 4.03776C2.03737 4.87251 2.58629 6.42243 5.22937 9.06493C7.86021 11.6946 9.40779 12.2499 10.2443 12.2499H10.2565C10.8533 12.247 11.138 11.9542 11.2756 11.8136C11.3176 11.7704 11.3515 11.7389 11.3754 11.7191C11.9564 11.1346 12.2539 10.6994 12.251 10.4206C12.2469 10.1359 11.8928 9.79934 11.4034 9.33384C11.2476 9.18568 11.0785 9.02468 10.9 8.84618C10.4374 8.38476 10.2081 8.46351 9.70412 8.64084C9.00704 8.88526 8.05037 9.21776 6.56404 7.73084C5.07537 6.24334 5.40846 5.28784 5.65229 4.59076C5.82846 4.08676 5.90896 3.85693 5.44579 3.39376C5.26437 3.21293 5.10162 3.04143 4.95171 2.88393C4.48912 2.39743 4.15546 2.04568 3.87254 2.04159H3.86787C3.58846 2.04159 3.15446 2.34026 2.54021 2.95451C2.54196 2.95276 2.54254 2.95218 2.54312 2.95218ZM10.2449 13.1249C8.79121 13.1249 6.89596 11.9676 4.61104 9.68384C2.31737 7.39076 1.15829 5.48968 1.16704 4.03309C1.17229 3.07059 1.67687 2.57768 1.86646 2.39276C1.87637 2.38051 1.91021 2.34726 1.92187 2.33559C2.75837 1.49851 3.32246 1.16018 3.88362 1.16659C4.53521 1.17534 4.99896 1.66301 5.58579 2.28076C5.73104 2.43359 5.88854 2.59984 6.06412 2.77484C6.91579 3.62651 6.67312 4.32126 6.47829 4.87893C6.26596 5.48734 6.08221 6.01234 7.18237 7.11251C8.28371 8.21268 8.80871 8.02893 9.41479 7.81484C9.97304 7.62001 10.666 7.37618 11.5189 8.22784C11.6915 8.40051 11.8555 8.55626 12.0065 8.70034C12.6272 9.29009 13.1172 9.75618 13.1254 10.4095C13.1324 10.9666 12.794 11.5342 11.9587 12.3701L11.5889 12.1193L11.9015 12.4249C11.7166 12.6145 11.2243 13.1197 10.2612 13.1249H10.2449Z" fill="#130F26"/>
</g>
</svg>
