<svg width="14" height="14" viewBox="0 0 14 14" fill="none" xmlns="http://www.w3.org/2000/svg">
<path d="M7 12.25C8.21461 12.25 9.39165 11.8288 10.3306 11.0583C11.2695 10.2878 11.9122 9.2155 12.1491 8.02422C12.3861 6.83295 12.2027 5.59636 11.6301 4.52517C11.0575 3.45397 10.1312 2.61445 9.00909 2.14963C7.88693 1.68482 6.63832 1.62348 5.47601 1.97606C4.31369 2.32865 3.30959 3.07334 2.63479 4.08326C1.95998 5.09317 1.65623 6.30582 1.77528 7.51459C1.89433 8.72336 2.42883 9.85345 3.28769 10.7123" stroke="black" stroke-linecap="round"/>
<path d="M9.33325 5.8335L7.81863 7.65104C7.16306 8.43773 6.83527 8.83107 6.3947 8.85106C5.95413 8.87104 5.59208 8.50899 4.86797 7.78489L4.66658 7.5835" stroke="black" stroke-linecap="round"/>
</svg>
