<svg width="14" height="14" viewBox="0 0 14 14" fill="none" xmlns="http://www.w3.org/2000/svg">
<path fill-rule="evenodd" clip-rule="evenodd" d="M7.14608 4.95801C6.58316 4.95801 6.12524 5.41592 6.12524 5.97942C6.12524 6.54234 6.58316 6.99967 7.14608 6.99967C7.70899 6.99967 8.16691 6.54234 8.16691 5.97942C8.16691 5.41592 7.70899 4.95801 7.14608 4.95801ZM7.14608 7.87467C6.10074 7.87467 5.25024 7.02476 5.25024 5.97942C5.25024 4.93351 6.10074 4.08301 7.14608 4.08301C8.19141 4.08301 9.04191 4.93351 9.04191 5.97942C9.04191 7.02476 8.19141 7.87467 7.14608 7.87467Z" fill="#130F26"/>
<mask id="mask0_1495_10536" style="mask-type:alpha" maskUnits="userSpaceOnUse" x="2" y="1" width="10" height="12">
<path fill-rule="evenodd" clip-rule="evenodd" d="M2.33325 1.1665H11.958V12.5415H2.33325V1.1665Z" fill="white"/>
</mask>
<g mask="url(#mask0_1495_10536)">
<path fill-rule="evenodd" clip-rule="evenodd" d="M7.14551 2.0415C4.97434 2.0415 3.20801 3.82475 3.20801 6.01575C3.20801 8.8035 6.48867 11.5195 7.14551 11.6642C7.80234 11.5189 11.083 8.80292 11.083 6.01575C11.083 3.82475 9.31667 2.0415 7.14551 2.0415ZM7.14551 12.5415C6.09901 12.5415 2.33301 9.30284 2.33301 6.01575C2.33301 3.34175 4.49192 1.1665 7.14551 1.1665C9.79909 1.1665 11.958 3.34175 11.958 6.01575C11.958 9.30284 8.19201 12.5415 7.14551 12.5415Z" fill="#130F26"/>
</g>
</svg>
