<svg width="30" height="30" viewBox="0 0 30 30" fill="none" xmlns="http://www.w3.org/2000/svg">
<path d="M14.4691 24.4V5.6H15.7491V24.4H14.4691ZM14.9691 22.16C13.9024 22.16 12.8824 22 11.9091 21.68C10.9357 21.3467 10.1691 20.92 9.60906 20.4L10.3491 18.84C10.8824 19.3067 11.5624 19.6933 12.3891 20C13.2157 20.3067 14.0757 20.46 14.9691 20.46C15.7824 20.46 16.4424 20.3667 16.9491 20.18C17.4557 19.9933 17.8291 19.74 18.0691 19.42C18.3091 19.0867 18.4291 18.7133 18.4291 18.3C18.4291 17.82 18.2691 17.4333 17.9491 17.14C17.6424 16.8467 17.2357 16.6133 16.7291 16.44C16.2357 16.2533 15.6891 16.0933 15.0891 15.96C14.4891 15.8267 13.8824 15.6733 13.2691 15.5C12.6691 15.3133 12.1157 15.08 11.6091 14.8C11.1157 14.52 10.7157 14.1467 10.4091 13.68C10.1024 13.2 9.94906 12.5867 9.94906 11.84C9.94906 11.12 10.1357 10.46 10.5091 9.86C10.8957 9.24667 11.4824 8.76 12.2691 8.4C13.0691 8.02667 14.0824 7.84 15.3091 7.84C16.1224 7.84 16.9291 7.94667 17.7291 8.16C18.5291 8.37333 19.2224 8.68 19.8091 9.08L19.1491 10.68C18.5491 10.28 17.9157 9.99333 17.2491 9.82C16.5824 9.63333 15.9357 9.54 15.3091 9.54C14.5224 9.54 13.8757 9.64 13.3691 9.84C12.8624 10.04 12.4891 10.3067 12.2491 10.64C12.0224 10.9733 11.9091 11.3467 11.9091 11.76C11.9091 12.2533 12.0624 12.6467 12.3691 12.94C12.6891 13.2333 13.0957 13.4667 13.5891 13.64C14.0957 13.8133 14.6491 13.9733 15.2491 14.12C15.8491 14.2533 16.4491 14.4067 17.0491 14.58C17.6624 14.7533 18.2157 14.98 18.7091 15.26C19.2157 15.54 19.6224 15.9133 19.9291 16.38C20.2357 16.8467 20.3891 17.4467 20.3891 18.18C20.3891 18.8867 20.1957 19.5467 19.8091 20.16C19.4224 20.76 18.8224 21.2467 18.0091 21.62C17.2091 21.98 16.1957 22.16 14.9691 22.16Z" fill="#0C2340"/>
</svg>
