<svg width="24" height="24" viewBox="0 0 24 24" fill="none" xmlns="http://www.w3.org/2000/svg">
<path fill-rule="evenodd" clip-rule="evenodd" d="M12.0001 9.33317C12.7334 9.33317 13.3334 8.73317 13.3334 7.99984C13.3334 7.2665 12.7334 6.6665 12.0001 6.6665C11.2667 6.6665 10.6667 7.2665 10.6667 7.99984C10.6667 8.73317 11.2667 9.33317 12.0001 9.33317ZM12.0001 10.6665C11.2667 10.6665 10.6667 11.2665 10.6667 11.9998C10.6667 12.7332 11.2667 13.3332 12.0001 13.3332C12.7334 13.3332 13.3334 12.7332 13.3334 11.9998C13.3334 11.2665 12.7334 10.6665 12.0001 10.6665ZM10.6667 15.9998C10.6667 15.2665 11.2667 14.6665 12.0001 14.6665C12.7334 14.6665 13.3334 15.2665 13.3334 15.9998C13.3334 16.7332 12.7334 17.3332 12.0001 17.3332C11.2667 17.3332 10.6667 16.7332 10.6667 15.9998Z" fill="#666666" fill-opacity="0.48"/>
</svg>
